# xmcd
# 
# Track frame offsets:
#     182
#     16872
#     37492
#     52857
#     70632
#     88020
#     105730
#     121850
#     139835
#     155037
#     173437
#     185820
#     200810
#     218465
#     236940
#     256807
#     274695
#     289360
# 
# Disc length: 4070
# 
# Revision: 4
# Processed by: cddbd v1.5.2PL0 Copyright (c) Steve Scherf et al.
# Submitted via: BonkEnc v1.0.8
# 
DISCID=020fe412,0b0fe412
DTITLE=HITBREAKER 1/95 cd1  - Hitbreaker  1/95 cd1 
DYEAR=1995
DGENRE=Pop
TTITLE0=Roxette - Fireworks
TTITLE1=Joshua Kadison - Picture Postcards From LA
TTITLE2=Bonnie Tyler - Say Goodbye
TTITLE3=Jon Secada - Whipped
TTITLE4=Blue System - Dr. Mabuse
TTITLE5=Londonbeat - Come Back
TTITLE6=Patti la Belle - The Right Kinda Lover
TTITLE7=Smokie - If You Think You Know How To Love Me
TTITLE8=Venus and Marc - Xummertime
TTITLE9=Magic Affair - Fire
TTITLE10=Shakin´ Stevens - I Can Help
TTITLE11=Soulsister - Wild Love Affair
TTITLE12=Keely Hawkes - Everything You Do
TTITLE13=Michel van Dyke - Maybe I Should Leave
TTITLE14=Lulu - Goodbye Baby And Amen
TTITLE15=Loft - Wake The World
TTITLE16=Major T. - I Can Only Give You My Heart
TTITLE17=Hit the Floor - Love Generator
EXTD=YEAR: 1995
EXTT0=
EXTT1=
EXTT2=
EXTT3=
EXTT4=
EXTT5=
EXTT6=
EXTT7=
EXTT8=
EXTT9=
EXTT10=
EXTT11=
EXTT12=
EXTT13=
EXTT14=
EXTT15=
EXTT16=
EXTT17=
PLAYORDER=
